<svg xmlns="http://www.w3.org/2000/svg" viewBox="0 0 32 32" fill="none" aria-label="帮我写">
  <title>帮我写</title>
  <path d="M18 3H8a2 2 0 0 0-2 2v22a2 2 0 0 0 2 2h16a2 2 0 0 0 2-2V11L18 3z"
        fill="#fff" stroke="#2f3437" stroke-width="2" stroke-linejoin="round"/>
  <path d="M18 3v8h8" stroke="#2f3437" stroke-width="2" stroke-linejoin="round"/>
  <path d="M10 17h12M10 21h10M10 25h7" stroke="#2f3437" stroke-width="1.5" stroke-linecap="round"/>
  <path d="M22.5 18.5l-7 7-2 1 1-2 7-7 1 1z" fill="#C00000" stroke="#2f3437" stroke-width="1.5" stroke-linejoin="round"/>
  <path d="M15.5 26.5l-1.5 1.5a.4.4 0 0 1-.6 0l-1-1a.4.4 0 0 1 0-.6l1.5-1.5" stroke="#2f3437" stroke-width="1.5" stroke-linejoin="round"/>
</svg>
