<svg xmlns="http://www.w3.org/2000/svg" viewBox="0 0 32 32" fill="none" aria-label="深度思考">
  <title>深度思考</title>
  <path d="M12 3a8 8 0 0 0-5 14.4c.8.7 1.3 1.7 1.3 2.7v.9h15.4v-.9c0-1 .5-2 1.3-2.7A8 8 0 0 0 20 3h-8z" stroke="#2f3437" stroke-width="2" stroke-linejoin="round" fill="#fff"/>
  <path d="M9 22h14" stroke="#2f3437" stroke-width="2" stroke-linecap="round"/>
  <path d="M11 25h10" stroke="#2f3437" stroke-width="2" stroke-linecap="round"/>
  <path d="M13 28h6" stroke="#2f3437" stroke-width="2" stroke-linecap="round"/>
  <path d="M22 8l.6-1.6.6 1.6 1.6.6-1.6.6-.6 1.6-.6-1.6-1.6-.6 1.6-.6zM27 12l.5-1.3.5 1.3 1.3.5-1.3.5-.5 1.3-.5-1.3-1.3-.5 1.3-.5z" fill="#f26b30"/>
</svg>
