<svg xmlns="http://www.w3.org/2000/svg" viewBox="0 0 32 32" fill="none" aria-label="公式">
  <title>公式</title>
  <path d="M18 3H8a2 2 0 0 0-2 2v22a2 2 0 0 0 2 2h16a2 2 0 0 0 2-2V11L18 3z"
        fill="#fff" stroke="#2f3437" stroke-width="2" stroke-linejoin="round"/>
  <path d="M18 3v8h8" stroke="#2f3437" stroke-width="2" stroke-linejoin="round"/>
  <path d="M13 14c-1.5 0-2.5-.8-2.5-2s1-2 2.5-2c1 0 1.8.4 2.2 1"
        stroke="#f26b30" stroke-width="2" stroke-linecap="round" fill="none"/>
  <path d="M12 13h3" stroke="#f26b30" stroke-width="2" stroke-linecap="round"/>
  <path d="M15 19l4 7M19 19l-4 7" stroke="#2f3437" stroke-width="2" stroke-linecap="round"/>
  <path d="M26 5l.6-1.6.6 1.6 1.6.6-1.6.6-.6 1.6-.6-1.6-1.6-.6 1.6-.6z" fill="#f26b30"/>
</svg>
