<svg xmlns="http://www.w3.org/2000/svg" viewBox="0 0 32 32" fill="none" aria-label="全文润色">
  <title>全文润色</title>
  <path d="M9 5h14v22H9V5z" stroke="#2f3437" stroke-width="2" stroke-linejoin="round" fill="#fff"/>
  <path d="M13 11h6M13 16h6M13 21h4" stroke="#2f3437" stroke-width="1.6" stroke-linecap="round"/>
  <path d="M7 9H5M7 16H5M7 23H5" stroke="#2f3437" stroke-width="2" stroke-linecap="round"/>
  <path d="M22 3.5l.8-2 .8 2 2 .8-2 .8-.8 2-.8-2-2-.8 2-.8z" fill="#C00000"/>
  <path d="M22 25l.5-1.4.5 1.4 1.4.5-1.4.5-.5 1.4-.5-1.4-1.4-.5 1.4-.5z" fill="#C00000"/>
</svg>
