<svg xmlns="http://www.w3.org/2000/svg" viewBox="0 0 32 32" fill="none" aria-label="口语化">
  <title>口语化</title>
  <path d="M5 8h17a2 2 0 0 1 2 2v8a2 2 0 0 1-2 2h-9l-5 4v-4H5a2 2 0 0 1-2-2v-8a2 2 0 0 1 2-2z" stroke="#2f3437" stroke-width="2" stroke-linejoin="round" fill="#fff"/>
  <path d="M9 14c0-1 .8-2 2-2s2 1 2 2-.8 2-2 2 1 0 1 0M16 14c0-1 .8-2 2-2s2 1 2 2-.8 2-2 2 1 0 1 0" stroke="#2f3437" stroke-width="1.5" stroke-linecap="round" fill="none"/>
  <circle cx="20" cy="20" r="4" fill="#f26b30"/>
  <path d="M18 20h4M20 18v4" stroke="#fff" stroke-width="1.4" stroke-linecap="round"/>
</svg>
