<svg xmlns="http://www.w3.org/2000/svg" viewBox="0 0 32 32" fill="none" aria-label="PDF问答">
  <title>PDF问答</title>
  <path d="M18 2H7a2 2 0 0 0-2 2v24a2 2 0 0 0 2 2h18a2 2 0 0 0 2-2V10L18 2z"
        fill="#fff" stroke="#2f3437" stroke-width="2" stroke-linejoin="round"/>
  <path d="M18 2v8h8" stroke="#2f3437" stroke-width="2" stroke-linejoin="round"/>
  <path d="M9 26h6" stroke="#2f3437" stroke-width="1.8" stroke-linecap="round"/>
  <path d="M20 16a3.5 3.5 0 0 0-1.5-2.9A3.5 3.5 0 0 0 15 10a3.5 3.5 0 0 0-3.5 3.5c0 1.2.7 2 1.5 2.5.3.2.5.5.5.8v1.2"
        stroke="#2f3437" stroke-width="2" stroke-linecap="round" fill="none"/>
  <circle cx="13.5" cy="22" r="1" fill="#2f3437"/>
  <path d="M27 3.5l.6-1.6.6 1.6 1.6.6-1.6.6-.6 1.6-.6-1.6-1.6-.6 1.6-.6z" fill="#f26b30"/>
</svg>
