<svg xmlns="http://www.w3.org/2000/svg" viewBox="0 0 32 32" fill="none" aria-label="PDF摘要">
  <title>PDF摘要</title>
  <path d="M18 2H7a2 2 0 0 0-2 2v24a2 2 0 0 0 2 2h18a2 2 0 0 0 2-2V10L18 2z"
        fill="#fff" stroke="#2f3437" stroke-width="2" stroke-linejoin="round"/>
  <path d="M18 2v8h8" stroke="#2f3437" stroke-width="2" stroke-linejoin="round"/>
  <path d="M9 15h10M9 19h8M9 23h6" stroke="#2f3437" stroke-width="1.8" stroke-linecap="round"/>
  <path d="M9 27h5" stroke="#2f3437" stroke-width="1.8" stroke-linecap="round"/>
  <path d="M27 3.5l.6-1.6.6 1.6 1.6.6-1.6.6-.6 1.6-.6-1.6-1.6-.6 1.6-.6z" fill="#f26b30"/>
</svg>
